<?xml version="1.0" standalone="no"?>
<!DOCTYPE svg PUBLIC "-//W3C//DTD SVG 20010904//EN"
 "http://www.w3.org/TR/2001/REC-SVG-20010904/DTD/svg10.dtd">
<svg version="1.0" xmlns="http://www.w3.org/2000/svg"
 width="260.000000pt" height="260.000000pt" viewBox="0 0 260.000000 260.000000"
 preserveAspectRatio="xMidYMid meet">
<metadata>
Created by potrace 1.14, written by Peter Selinger 2001-2017
</metadata>
<g transform="translate(0.000000,260.000000) scale(0.100000,-0.100000)"
fill="#000000" stroke="none">
<path d="M230 1581 c-76 -24 -136 -79 -166 -149 -40 -95 -26 -252 30 -324 93
-123 282 -144 389 -43 39 37 63 76 68 114 4 23 1 24 -54 26 -57 1 -58 1 -79
-37 -23 -40 -58 -58 -115 -58 -89 0 -142 77 -137 200 4 111 54 170 144 170 62
0 119 -39 120 -83 0 -16 8 -18 63 -15 60 3 62 4 59 28 -6 45 -56 113 -105 144
-39 24 -60 30 -120 32 -39 2 -83 0 -97 -5z"/>
<path d="M768 1576 c-75 -33 -114 -101 -106 -186 6 -60 23 -82 201 -258 l134
-134 160 161 c132 132 163 169 172 204 26 91 -14 175 -102 212 -64 26 -130 14
-187 -35 -43 -36 -48 -37 -80 -3 -47 50 -130 67 -192 39z"/>
<path d="M1473 1582 l-23 -3 0 -285 0 -284 185 0 185 0 0 50 0 50 -123 0 -123
0 0 231 c1 127 -2 233 -6 235 -10 7 -68 10 -95 6z"/>
<path d="M1928 1582 l-28 -3 0 -285 0 -284 59 0 59 0 0 158 c0 238 -2 230 38
132 20 -47 37 -89 38 -95 2 -5 8 -21 13 -35 6 -14 23 -55 38 -92 27 -68 27
-68 66 -68 44 0 39 -9 129 220 29 74 56 138 59 142 3 4 6 -76 6 -177 l0 -185
60 0 60 0 0 285 c0 221 -3 285 -12 286 -71 6 -150 -1 -150 -13 0 -12 -67 -181
-112 -283 -9 -22 -22 -51 -28 -65 l-10 -25 -20 40 c-12 22 -21 42 -21 45 -1
15 -112 283 -122 293 -8 9 -78 14 -122 9z"/>
</g>
</svg>
